<svg width="61" height="9" viewBox="0 0 61 9" fill="none" xmlns="http://www.w3.org/2000/svg">
<path d="M5.112 0.0199997H0.648V8H2.784V5.396H5.112C6.948 5.396 7.68 4.208 7.68 2.66C7.68 1.208 6.948 0.0199997 5.112 0.0199997ZM4.404 3.764H2.784V1.64H4.428C5.184 1.64 5.472 2.06 5.472 2.672C5.472 3.296 5.172 3.764 4.404 3.764ZM11.6662 6.812C10.8982 6.812 10.4302 6.488 10.3102 5.528H14.8102C14.8342 5.396 14.8462 5.216 14.8462 5.024C14.8462 3.356 14.0662 1.808 11.6182 1.808C9.31416 1.808 8.30616 3.248 8.30616 4.988C8.30616 6.632 9.17016 8.192 11.6182 8.192C13.8022 8.192 14.6182 7.22 14.8222 6.188H12.8182C12.6502 6.548 12.2782 6.812 11.6662 6.812ZM11.6422 3.164C12.4462 3.164 12.8182 3.572 12.8902 4.328H10.3342C10.4662 3.464 10.8982 3.164 11.6422 3.164ZM19.9298 1.808C18.8618 1.808 18.1658 2.324 17.7698 3.116V2H15.7058V8H17.7698V5.18C17.7698 4.004 18.2498 3.476 19.0778 3.476C19.7978 3.476 20.1218 3.908 20.1218 4.7V8H22.1858V4.352C22.1858 2.78 21.5018 1.808 19.9298 1.808ZM23.0015 5C23.0015 6.62 23.9375 8.192 26.4215 8.192C28.6535 8.192 29.6495 6.884 29.6975 5.456H27.6695C27.5975 6.116 27.2375 6.584 26.3855 6.584C25.5335 6.584 25.0655 6.2 25.0655 5C25.0655 3.8 25.5575 3.416 26.4215 3.416C27.2255 3.416 27.5855 3.824 27.6455 4.532H29.6735C29.6255 3.032 28.5695 1.808 26.3975 1.808C23.9135 1.808 23.0015 3.38 23.0015 5ZM34.2263 1.904C33.2543 1.904 32.7623 2.372 32.5223 3.224V2H30.5183V8H32.5823V5.6C32.5823 4.388 33.0023 3.908 33.9983 3.908H34.7303V1.904H34.2263ZM38.5624 8.192C41.1064 8.192 42.0064 6.608 42.0064 5C42.0064 3.392 41.1064 1.808 38.5624 1.808C36.0184 1.808 35.1304 3.392 35.1304 5C35.1304 6.62 36.0184 8.192 38.5624 8.192ZM37.1944 5C37.1944 3.8 37.5784 3.416 38.5624 3.416C39.5464 3.416 39.9304 3.8 39.9304 5C39.9304 6.2 39.5464 6.584 38.5624 6.584C37.5784 6.584 37.1944 6.2 37.1944 5ZM51.1409 2L50.1809 6.44L48.8489 2H46.6769L45.3449 6.428L44.3489 2H42.2729L43.7369 8H46.6049L47.6729 4.052L48.7289 8H51.5849L53.0609 2H51.1409ZM57.9805 1.808C56.9125 1.808 56.2165 2.324 55.8205 3.116V2H53.7565V8H55.8205V5.18C55.8205 4.004 56.3005 3.476 57.1285 3.476C57.8485 3.476 58.1725 3.908 58.1725 4.7V8H60.2365V4.352C60.2365 2.78 59.5525 1.808 57.9805 1.808Z" fill="black"/>
</svg>
